<svg xmlns="http://www.w3.org/2000/svg" width="19" height="36" viewBox="0 0 19 36"><path fill="none" d="M0 0h19v36H0z"/><path fill="#145145" d="M19 7.312C19 2.032 14.746 0 9.5 0S0 2.03 0 7.312v19.125L9.5 36l9.5-9.562V7.318v-.006z"/><path fill="#42A56C" d="M1 26.025V7.312C1 1.82 6.326 1 9.5 1s8.5.82 8.5 6.312v18.713L9.5 34.58 1 26.026z"/><path fill="#399155" d="M10 2.01v30.65l7-7.046V7.312c0-4.178-3.693-5.213-7-5.303z"/><g><circle fill="#FFF" cx="9.5" cy="11.5" r="5.15"/><path fill="none" d="M0 0h19v36H0z"/></g></svg>